<svg xmlns="http://www.w3.org/2000/svg" width="900" height="122" viewBox="0 0 900 122">
  <defs>
    <pattern id="scan" width="4" height="4" patternUnits="userSpaceOnUse">
      <rect width="4" height="1" fill="#000000" opacity="0.18"/>
    </pattern>
    <pattern id="grid" width="24" height="24" patternUnits="userSpaceOnUse">
      <path d="M 24 0 L 0 0 0 24" fill="none" stroke="#72251F" stroke-width="1" opacity="0.22"/>
    </pattern>
    <linearGradient id="glow" x1="0" x2="1">
      <stop offset="0" stop-color="#FF4D3D"/>
      <stop offset="0.5" stop-color="#F4C77A"/>
      <stop offset="1" stop-color="#FF4D3D"/>
    </linearGradient>
  </defs>
  
  <rect width="900" height="122" rx="10" fill="#13090C"/>
  <rect x="1.5" y="1.5" width="897" height="119" rx="9" fill="none" stroke="#72251F" stroke-width="2"/>
  <rect x="16" y="15" width="868" height="92" rx="8" fill="#1C0D12"/>
  <rect x="30" y="31" width="205" height="59" rx="6" fill="#2A1116" stroke="#C94732" stroke-width="2"/>
  <rect x="254" y="31" width="205" height="59" rx="6" fill="#2A1116" stroke="#C94732" stroke-width="2"/>
  <rect x="478" y="31" width="205" height="59" rx="6" fill="#2A1116" stroke="#C94732" stroke-width="2"/>
  <rect x="702" y="31" width="152" height="59" rx="6" fill="#2A1116" stroke="#C94732" stroke-width="2"/>
  <text x="47" y="54" font-family="monospace" font-size="11" fill="#B78F87">ROLE</text>
  <text x="47" y="77" font-family="monospace" font-size="16" font-weight="800" fill="#F4C77A">AI AUTOMATION</text>
  <text x="271" y="54" font-family="monospace" font-size="11" fill="#B78F87">VIBE CODING</text>
  <text x="271" y="77" font-family="monospace" font-size="16" font-weight="800" fill="#7CFF73">HIGH SKILL</text>
  <text x="495" y="54" font-family="monospace" font-size="11" fill="#B78F87">FOCUS</text>
  <text x="495" y="77" font-family="monospace" font-size="16" font-weight="800" fill="#FF4D3D">BUILD & SHIP</text>
  <text x="719" y="54" font-family="monospace" font-size="11" fill="#B78F87">STATUS</text>
  <text x="719" y="77" font-family="monospace" font-size="16" font-weight="800" fill="#7CFF73">ONLINE</text>
  <rect width="900" height="122" rx="10" fill="url(#scan)"/>

</svg>